<svg width="161" height="36" viewBox="0 0 161 36" fill="none" xmlns="http://www.w3.org/2000/svg">
<path d="M15.5564 28.5005V27.7805C16.3484 27.7325 16.9364 27.6365 17.3204 27.4925C17.7284 27.3485 17.9924 27.0605 18.1124 26.6285C18.2564 26.1965 18.3284 25.5485 18.3284 24.6845V6.82849C18.3284 5.94049 18.2564 5.29249 18.1124 4.88449C17.9924 4.45249 17.7284 4.16449 17.3204 4.02049C16.9364 3.85249 16.3484 3.75649 15.5564 3.73249V3.01249C16.2044 3.03649 17.0084 3.06049 17.9684 3.08449C18.9284 3.10849 19.8884 3.12049 20.8484 3.12049C21.9044 3.12049 22.8884 3.10849 23.8004 3.08449C24.7364 3.06049 25.4804 3.03649 26.0324 3.01249V3.73249C25.2644 3.75649 24.6764 3.85249 24.2684 4.02049C23.8844 4.16449 23.6204 4.45249 23.4764 4.88449C23.3324 5.29249 23.2604 5.94049 23.2604 6.82849V24.6845C23.2604 25.5485 23.3324 26.1965 23.4764 26.6285C23.6204 27.0605 23.8844 27.3485 24.2684 27.4925C24.6764 27.6365 25.2644 27.7325 26.0324 27.7805V28.5005C25.4804 28.4525 24.7364 28.4285 23.8004 28.4285C22.8884 28.4045 21.9044 28.3925 20.8484 28.3925C19.8884 28.3925 18.9284 28.4045 17.9684 28.4285C17.0084 28.4285 16.2044 28.4525 15.5564 28.5005ZM0.364359 28.5005V27.7805C1.15636 27.7325 1.74436 27.6365 2.12836 27.4925C2.53636 27.3485 2.80036 27.0605 2.92036 26.6285C3.06436 26.1965 3.13636 25.5485 3.13636 24.6845V6.82849C3.13636 5.94049 3.06436 5.29249 2.92036 4.88449C2.80036 4.45249 2.53636 4.16449 2.12836 4.02049C1.74436 3.85249 1.15636 3.75649 0.364359 3.73249V3.01249C0.96436 3.03649 1.73236 3.06049 2.66836 3.08449C3.60436 3.10849 4.61236 3.12049 5.69236 3.12049C6.65236 3.12049 7.60036 3.10849 8.53636 3.08449C9.47236 3.06049 10.2404 3.03649 10.8404 3.01249V3.73249C10.0724 3.75649 9.48436 3.85249 9.07636 4.02049C8.69236 4.16449 8.42836 4.45249 8.28436 4.88449C8.14036 5.29249 8.06836 5.94049 8.06836 6.82849V24.6845C8.06836 25.5485 8.14036 26.1965 8.28436 26.6285C8.42836 27.0605 8.69236 27.3485 9.07636 27.4925C9.48436 27.6365 10.0724 27.7325 10.8404 27.7805V28.5005C10.2404 28.4525 9.47236 28.4285 8.53636 28.4285C7.60036 28.4045 6.65236 28.3925 5.69236 28.3925C4.61236 28.3925 3.60436 28.4045 2.66836 28.4285C1.73236 28.4285 0.96436 28.4525 0.364359 28.5005ZM6.08836 16.0445V15.3245H20.3084V16.0445H6.08836ZM45.2713 9.49249V24.6125C45.2713 25.6925 45.4513 26.4965 45.8113 27.0245C46.1713 27.5285 46.8073 27.7805 47.7193 27.7805V28.5365C46.9753 28.4645 46.2313 28.4285 45.4873 28.4285C44.5993 28.4285 43.7473 28.4645 42.9313 28.5365C42.1393 28.6085 41.4073 28.7405 40.7353 28.9325V25.3325C40.1353 26.6525 39.3073 27.6005 38.2513 28.1765C37.2193 28.7285 36.1033 29.0045 34.9033 29.0045C33.9673 29.0045 33.1753 28.8725 32.5273 28.6085C31.9033 28.3685 31.3993 28.0325 31.0153 27.6005C30.6073 27.1445 30.3193 26.5445 30.1513 25.8005C29.9833 25.0565 29.8993 24.0965 29.8993 22.9205V13.8125C29.8993 12.7325 29.7193 11.9405 29.3593 11.4365C29.0233 10.9085 28.3873 10.6445 27.4513 10.6445V9.88849C28.2193 9.96049 28.9633 9.99649 29.6833 9.99649C30.5713 9.99649 31.4113 9.96049 32.2033 9.88849C33.0193 9.79249 33.7633 9.66049 34.4353 9.49249V24.1805C34.4353 24.8285 34.4833 25.4045 34.5793 25.9085C34.6993 26.4125 34.9273 26.8205 35.2633 27.1325C35.5993 27.4205 36.1033 27.5645 36.7753 27.5645C37.5193 27.5645 38.1913 27.3485 38.7913 26.9165C39.3913 26.4845 39.8593 25.8965 40.1953 25.1525C40.5553 24.4085 40.7353 23.5685 40.7353 22.6325V13.8125C40.7353 12.7325 40.5553 11.9405 40.1953 11.4365C39.8593 10.9085 39.2233 10.6445 38.2873 10.6445V9.88849C39.0553 9.96049 39.7993 9.99649 40.5193 9.99649C41.4073 9.99649 42.2473 9.96049 43.0393 9.88849C43.8553 9.79249 44.5993 9.66049 45.2713 9.49249ZM61.3157 9.38449C62.0597 9.38449 62.6717 9.54049 63.1517 9.85249C63.6557 10.1645 64.0277 10.5605 64.2677 11.0405C64.5077 11.5205 64.6277 12.0245 64.6277 12.5525C64.6277 13.3445 64.3877 14.0045 63.9077 14.5325C63.4517 15.0605 62.8397 15.3245 62.0717 15.3245C61.3517 15.3245 60.7637 15.1325 60.3077 14.7485C59.8517 14.3645 59.6237 13.8365 59.6237 13.1645C59.6237 12.5645 59.7677 12.0605 60.0557 11.6525C60.3677 11.2445 60.7157 10.9205 61.0997 10.6805C60.8357 10.5365 60.5357 10.4885 60.1997 10.5365C59.6237 10.5845 59.0957 10.7885 58.6157 11.1485C58.1357 11.5085 57.7277 11.9525 57.3917 12.4805C57.0557 13.0085 56.7917 13.5725 56.5997 14.1725C56.4317 14.7725 56.3477 15.3485 56.3477 15.9005V24.7925C56.3477 25.9685 56.6477 26.7605 57.2477 27.1685C57.8477 27.5525 58.7237 27.7445 59.8757 27.7445V28.5005C59.3237 28.4765 58.5197 28.4525 57.4637 28.4285C56.4317 28.3805 55.3517 28.3565 54.2237 28.3565C53.2877 28.3565 52.3517 28.3805 51.4157 28.4285C50.5037 28.4525 49.8197 28.4765 49.3637 28.5005V27.7445C50.2517 27.7445 50.8757 27.5645 51.2357 27.2045C51.6197 26.8445 51.8117 26.1605 51.8117 25.1525V13.8125C51.8117 12.7325 51.6317 11.9405 51.2717 11.4365C50.9357 10.9085 50.2997 10.6445 49.3637 10.6445V9.88849C50.1317 9.96049 50.8757 9.99649 51.5957 9.99649C52.4837 9.99649 53.3237 9.96049 54.1157 9.88849C54.9317 9.79249 55.6757 9.66049 56.3477 9.49249V13.2365C56.6357 12.5645 57.0077 11.9405 57.4637 11.3645C57.9437 10.7885 58.5077 10.3205 59.1557 9.96049C59.8277 9.57649 60.5477 9.38449 61.3157 9.38449ZM77.8392 9.38449C78.5832 9.38449 79.1952 9.54049 79.6752 9.85249C80.1792 10.1645 80.5512 10.5605 80.7912 11.0405C81.0312 11.5205 81.1512 12.0245 81.1512 12.5525C81.1512 13.3445 80.9112 14.0045 80.4312 14.5325C79.9752 15.0605 79.3632 15.3245 78.5952 15.3245C77.8752 15.3245 77.2872 15.1325 76.8312 14.7485C76.3752 14.3645 76.1472 13.8365 76.1472 13.1645C76.1472 12.5645 76.2912 12.0605 76.5792 11.6525C76.8912 11.2445 77.2392 10.9205 77.6232 10.6805C77.3592 10.5365 77.0592 10.4885 76.7232 10.5365C76.1472 10.5845 75.6192 10.7885 75.1392 11.1485C74.6592 11.5085 74.2512 11.9525 73.9152 12.4805C73.5792 13.0085 73.3152 13.5725 73.1232 14.1725C72.9552 14.7725 72.8712 15.3485 72.8712 15.9005V24.7925C72.8712 25.9685 73.1712 26.7605 73.7712 27.1685C74.3712 27.5525 75.2472 27.7445 76.3992 27.7445V28.5005C75.8472 28.4765 75.0432 28.4525 73.9872 28.4285C72.9552 28.3805 71.8752 28.3565 70.7472 28.3565C69.8112 28.3565 68.8752 28.3805 67.9392 28.4285C67.0272 28.4525 66.3432 28.4765 65.8872 28.5005V27.7445C66.7752 27.7445 67.3992 27.5645 67.7592 27.2045C68.1432 26.8445 68.3352 26.1605 68.3352 25.1525V13.8125C68.3352 12.7325 68.1552 11.9405 67.7952 11.4365C67.4592 10.9085 66.8232 10.6445 65.8872 10.6445V9.88849C66.6552 9.96049 67.3992 9.99649 68.1192 9.99649C69.0072 9.99649 69.8472 9.96049 70.6392 9.88849C71.4552 9.79249 72.1992 9.66049 72.8712 9.49249V13.2365C73.1592 12.5645 73.5312 11.9405 73.9872 11.3645C74.4672 10.7885 75.0312 10.3205 75.6792 9.96049C76.3512 9.57649 77.0712 9.38449 77.8392 9.38449ZM99.6906 9.88849V10.6445C99.2346 10.7405 98.8026 10.9925 98.3946 11.4005C98.0106 11.8085 97.6386 12.5285 97.2786 13.5605L91.9506 28.1765L90.8346 29.8685L83.4186 12.6605C82.9626 11.7485 82.5306 11.1845 82.1226 10.9685C81.7146 10.7525 81.3786 10.6445 81.1146 10.6445V9.88849C81.8106 9.96049 82.5306 10.0205 83.2746 10.0685C84.0426 10.0925 84.8106 10.1045 85.5786 10.1045C86.4666 10.1045 87.3186 10.0805 88.1346 10.0325C88.9746 9.98449 89.7546 9.93649 90.4746 9.88849V10.6445C89.9226 10.6445 89.4306 10.6805 88.9986 10.7525C88.5666 10.8245 88.2786 11.0285 88.1346 11.3645C88.0146 11.6765 88.1106 12.2285 88.4226 13.0205L92.9226 24.0005L92.6346 24.1445L95.8026 15.5765C96.2106 14.4485 96.3786 13.5365 96.3066 12.8405C96.2346 12.1445 95.9706 11.6165 95.5146 11.2565C95.0586 10.8965 94.4346 10.6925 93.6426 10.6445V9.88849C94.0266 9.91249 94.4106 9.93649 94.7946 9.96049C95.1786 9.98449 95.5506 10.0085 95.9106 10.0325C96.2706 10.0325 96.6186 10.0325 96.9546 10.0325C97.4586 10.0325 97.9506 10.0205 98.4306 9.99649C98.9346 9.97249 99.3546 9.93649 99.6906 9.88849ZM91.9506 28.1765L90.5826 31.8125C90.3666 32.4125 90.1266 32.9165 89.8626 33.3245C89.6226 33.7565 89.3466 34.1045 89.0346 34.3685C88.6746 34.6805 88.2306 34.9085 87.7026 35.0525C87.1986 35.1965 86.6346 35.2685 86.0106 35.2685C85.4586 35.2685 84.9186 35.1725 84.3906 34.9805C83.8866 34.7885 83.4546 34.5005 83.0946 34.1165C82.7586 33.7325 82.5906 33.2285 82.5906 32.6045C82.5906 31.9325 82.8186 31.3925 83.2746 30.9845C83.7306 30.5765 84.3546 30.3725 85.1466 30.3725C85.8426 30.3725 86.4066 30.5405 86.8386 30.8765C87.2946 31.2365 87.5226 31.7645 87.5226 32.4605C87.5226 32.9165 87.3906 33.3245 87.1266 33.6845C86.8626 34.0445 86.4906 34.3205 86.0106 34.5125C86.1306 34.5365 86.2386 34.5485 86.3346 34.5485C86.4546 34.5725 86.5506 34.5845 86.6226 34.5845C87.3186 34.5845 87.9426 34.3565 88.4946 33.9005C89.0466 33.4445 89.4906 32.7245 89.8266 31.7405L91.1226 28.1765H91.9506ZM131.501 3.01249V3.73249C130.733 3.80449 130.145 3.98449 129.737 4.27249C129.353 4.53649 129.089 4.96849 128.945 5.56849C128.801 6.14449 128.729 6.97249 128.729 8.05249V18.0245C128.729 19.6325 128.621 21.0725 128.405 22.3445C128.213 23.6165 127.829 24.7205 127.253 25.6565C126.653 26.6645 125.753 27.4805 124.553 28.1045C123.377 28.7045 121.937 29.0045 120.233 29.0045C119.081 29.0045 117.941 28.8725 116.813 28.6085C115.709 28.3445 114.737 27.8525 113.897 27.1325C113.153 26.5085 112.565 25.8005 112.133 25.0085C111.725 24.2165 111.449 23.2685 111.305 22.1645C111.161 21.0365 111.089 19.6925 111.089 18.1325V6.82849C111.089 5.94049 111.017 5.29249 110.873 4.88449C110.753 4.45249 110.489 4.16449 110.081 4.02049C109.697 3.85249 109.109 3.75649 108.317 3.73249V3.01249C108.917 3.03649 109.685 3.06049 110.621 3.08449C111.557 3.10849 112.565 3.12049 113.645 3.12049C114.629 3.12049 115.601 3.10849 116.561 3.08449C117.521 3.06049 118.313 3.03649 118.937 3.01249V3.73249C118.121 3.75649 117.497 3.85249 117.065 4.02049C116.657 4.16449 116.381 4.45249 116.237 4.88449C116.093 5.29249 116.021 5.94049 116.021 6.82849V19.8605C116.021 21.0605 116.093 22.1525 116.237 23.1365C116.405 24.0965 116.669 24.9245 117.029 25.6205C117.413 26.3165 117.941 26.8445 118.613 27.2045C119.309 27.5645 120.185 27.7445 121.241 27.7445C122.993 27.7445 124.349 27.3485 125.309 26.5565C126.269 25.7645 126.941 24.6605 127.325 23.2445C127.709 21.8285 127.901 20.2205 127.901 18.4205V8.34049C127.901 7.16449 127.817 6.26449 127.649 5.64049C127.481 5.01649 127.145 4.56049 126.641 4.27249C126.161 3.98449 125.441 3.80449 124.481 3.73249V3.01249C124.937 3.03649 125.525 3.06049 126.245 3.08449C126.989 3.10849 127.673 3.12049 128.297 3.12049C128.897 3.12049 129.485 3.10849 130.061 3.08449C130.661 3.06049 131.141 3.03649 131.501 3.01249ZM139.382 9.52849V31.5245C139.382 32.6045 139.67 33.3245 140.246 33.6845C140.846 34.0685 141.662 34.2605 142.694 34.2605V35.0165C142.118 34.9925 141.302 34.9565 140.246 34.9085C139.214 34.8845 138.11 34.8725 136.934 34.8725C136.118 34.8725 135.302 34.8845 134.486 34.9085C133.67 34.9565 133.046 34.9925 132.614 35.0165V34.2605C133.43 34.2605 134.006 34.0925 134.342 33.7565C134.678 33.4205 134.846 32.7965 134.846 31.8845V13.8485C134.846 12.7685 134.678 11.9765 134.342 11.4725C134.006 10.9445 133.358 10.6805 132.398 10.6805V9.92449C133.166 9.99649 133.91 10.0325 134.63 10.0325C135.542 10.0325 136.394 9.99649 137.186 9.92449C137.978 9.82849 138.71 9.69649 139.382 9.52849ZM145.034 9.38449C146.282 9.38449 147.398 9.73249 148.382 10.4285C149.366 11.1005 150.134 12.0965 150.686 13.4165C151.262 14.7365 151.55 16.3925 151.55 18.3845C151.55 19.9685 151.37 21.4205 151.01 22.7405C150.65 24.0365 150.11 25.1525 149.39 26.0885C148.694 27.0245 147.83 27.7445 146.798 28.2485C145.766 28.7525 144.59 29.0045 143.27 29.0045C142.262 29.0045 141.362 28.8125 140.57 28.4285C139.778 28.0445 139.202 27.5285 138.842 26.8805L139.202 26.3765C139.49 26.8805 139.886 27.2885 140.39 27.6005C140.894 27.9125 141.494 28.0685 142.19 28.0685C143.342 28.0685 144.254 27.6965 144.926 26.9525C145.598 26.1845 146.066 25.1165 146.33 23.7485C146.618 22.3805 146.762 20.7965 146.762 18.9965C146.762 17.0045 146.63 15.4085 146.366 14.2085C146.102 13.0085 145.706 12.1445 145.178 11.6165C144.65 11.0645 144.026 10.7885 143.306 10.7885C142.322 10.7885 141.434 11.1845 140.642 11.9765C139.874 12.7445 139.406 13.8725 139.238 15.3605L138.986 14.3525C139.37 12.7685 140.102 11.5445 141.182 10.6805C142.262 9.81649 143.546 9.38449 145.034 9.38449ZM157.882 0.348486C158.554 0.348486 159.142 0.612486 159.646 1.14049C160.15 1.64449 160.402 2.38849 160.402 3.37249C160.402 4.38049 160.294 5.54449 160.078 6.86449C159.862 8.18449 159.61 9.63649 159.322 11.2205C159.058 12.7805 158.806 14.4245 158.566 16.1525C158.35 17.8805 158.23 19.6445 158.206 21.4445H157.558C157.51 19.6445 157.378 17.8805 157.162 16.1525C156.946 14.4245 156.694 12.7805 156.406 11.2205C156.118 9.63649 155.866 8.18449 155.65 6.86449C155.458 5.54449 155.362 4.38049 155.362 3.37249C155.362 2.38849 155.602 1.64449 156.082 1.14049C156.562 0.612486 157.162 0.348486 157.882 0.348486ZM157.882 23.7485C158.698 23.7485 159.37 23.9885 159.898 24.4685C160.426 24.9485 160.69 25.5845 160.69 26.3765C160.69 27.1685 160.426 27.8045 159.898 28.2845C159.37 28.7645 158.698 29.0045 157.882 29.0045C157.042 29.0045 156.358 28.7645 155.83 28.2845C155.326 27.8045 155.074 27.1685 155.074 26.3765C155.074 25.5845 155.326 24.9485 155.83 24.4685C156.358 23.9885 157.042 23.7485 157.882 23.7485Z" fill="#1C1C1C"/>
</svg>
