<svg width="316" height="82" viewBox="0 0 316 82" fill="none" xmlns="http://www.w3.org/2000/svg">
<path d="M0.713281 25.7365C1.21728 25.8485 2.14128 25.9325 3.48528 25.9885C4.82928 26.0445 6.36928 26.1005 8.10528 26.1565C9.84128 26.1565 11.5493 26.1565 13.2293 26.1565H35.2373V27.9205C34.0613 30.5525 32.6333 33.3525 30.9533 36.3205C29.3293 39.2885 27.7053 42.4805 26.0813 45.8965C24.4573 49.2565 23.1133 52.9245 22.0493 56.9005C20.9853 60.8205 20.4813 65.0765 20.5373 69.6685C20.5373 70.2285 20.5653 70.9285 20.6213 71.7685C20.6773 72.6085 20.7333 73.4485 20.7893 74.2885C20.8453 75.1285 20.8733 75.8285 20.8733 76.3885C20.8733 77.8445 20.3973 79.1325 19.4453 80.2525C18.5493 81.3725 17.2053 81.9325 15.4133 81.9325C13.6213 81.9325 12.2773 81.3165 11.3813 80.0845C10.5413 78.8525 10.1213 77.3125 10.1213 75.4645C10.1213 72.1045 10.6533 68.8285 11.7173 65.6365C12.7813 62.4445 14.1813 59.3085 15.9173 56.2285C17.6533 53.1485 19.5293 50.1525 21.5453 47.2405C23.5613 44.3285 25.5213 41.5285 27.4253 38.8405C29.3853 36.0965 31.0653 33.4645 32.4653 30.9445L30.4493 35.3965H8.27328C5.97728 35.3965 4.52128 35.6765 3.90528 36.2365C3.28928 36.7965 2.86928 37.8325 2.64528 39.3445H1.04928C1.04928 35.8165 1.02128 33.0445 0.965281 31.0285C0.909281 29.0125 0.825281 27.2485 0.713281 25.7365ZM66.4393 22.5445C66.4393 26.0725 66.4673 28.8445 66.5233 30.8605C66.5793 32.8205 66.6633 34.5565 66.7753 36.0685C66.3273 35.9565 65.4593 35.8725 64.1713 35.8165C62.9393 35.7605 61.5113 35.7325 59.8873 35.7325C58.2633 35.6765 56.6673 35.6485 55.0993 35.6485H43.5073L42.2473 50.6005C43.5913 49.8165 45.1873 49.1165 47.0353 48.5005C48.9393 47.8845 51.2633 47.5765 54.0073 47.5765C57.6473 47.5765 60.6433 48.1645 62.9953 49.3405C65.3473 50.4605 67.0833 52.0285 68.2033 54.0445C69.3233 56.0045 69.8833 58.2165 69.8833 60.6805C69.8833 63.9285 68.9593 66.8685 67.1113 69.5005C65.2633 72.1325 62.7993 74.3725 59.7193 76.2205C56.6953 78.0685 53.3353 79.4685 49.6393 80.4205C45.9433 81.4285 42.2193 81.9325 38.4673 81.9325V80.4205C41.0433 80.4205 43.5353 80.0005 45.9433 79.1605C48.3513 78.3205 50.5353 77.0885 52.4953 75.4645C54.4553 73.8965 55.9953 71.9365 57.1153 69.5845C58.2913 67.2325 58.8793 64.4885 58.8793 61.3525C58.8793 57.8245 58.0113 55.1085 56.2753 53.2045C54.5953 51.2445 52.1593 50.2645 48.9673 50.2645C47.3993 50.2645 46.0553 50.4605 44.9353 50.8525C43.8713 51.2445 42.7513 51.7485 41.5753 52.3645L40.5673 51.6925L42.8353 25.8205C43.4513 25.9325 44.1513 26.0165 44.9353 26.0725C45.7753 26.1285 46.5873 26.1565 47.3713 26.1565H59.7193C61.6233 26.1565 62.8833 25.9045 63.4993 25.4005C64.1153 24.8405 64.5073 23.8885 64.6753 22.5445H66.4393ZM89.0616 5.57649C93.0376 5.57649 96.2296 6.78048 98.6376 9.18848C101.102 11.5965 102.334 14.9565 102.334 19.2685C102.334 22.0685 101.746 24.5325 100.57 26.6605C99.3936 28.7885 97.8256 30.4405 95.8656 31.6165C93.9056 32.7925 91.6376 33.3805 89.0616 33.3805C85.0856 33.3805 81.8656 32.1765 79.4016 29.7685C76.9936 27.3605 75.7896 24.0005 75.7896 19.6885C75.7896 16.8885 76.3496 14.4245 77.4696 12.2965C78.6456 10.1685 80.2416 8.51649 82.2576 7.34049C84.2736 6.16449 86.5416 5.57649 89.0616 5.57649ZM118.126 44.3845C116.166 44.3845 114.71 45.4485 113.758 47.5765C112.806 49.7045 112.33 52.8125 112.33 56.9005C112.33 60.9885 112.89 64.0685 114.01 66.1405C115.13 68.1565 116.614 69.1645 118.462 69.1645C120.422 69.1645 121.85 68.1005 122.746 65.9725C123.698 63.8445 124.174 60.7645 124.174 56.7325C124.174 52.5885 123.642 49.5085 122.578 47.4925C121.514 45.4205 120.03 44.3845 118.126 44.3845ZM118.294 42.8725C122.27 42.8725 125.462 44.0765 127.87 46.4845C130.334 48.8925 131.566 52.2525 131.566 56.5645C131.566 59.3645 130.978 61.8285 129.802 63.9565C128.626 66.0845 127.058 67.7365 125.098 68.9125C123.138 70.0885 120.87 70.6765 118.294 70.6765C114.318 70.6765 111.098 69.4725 108.634 67.0645C106.226 64.6565 105.022 61.2965 105.022 56.9845C105.022 54.1845 105.582 51.7205 106.702 49.5925C107.878 47.4645 109.474 45.8125 111.49 44.6365C113.506 43.4605 115.774 42.8725 118.294 42.8725ZM88.8936 7.08849C86.9336 7.08849 85.4776 8.15249 84.5256 10.2805C83.5736 12.4085 83.0976 15.5165 83.0976 19.6045C83.0976 23.6925 83.6576 26.7725 84.7776 28.8445C85.8976 30.8605 87.3816 31.8685 89.2296 31.8685C91.1896 31.8685 92.6176 30.8045 93.5136 28.6765C94.4656 26.5485 94.9416 23.4685 94.9416 19.4365C94.9416 15.2925 94.4096 12.2125 93.3456 10.1965C92.2816 8.12449 90.7976 7.08849 88.8936 7.08849ZM127.87 0.284483L129.466 1.37648L80.3256 74.1205L78.7296 73.0285L127.87 0.284483ZM187.229 8.85248C192.941 8.85248 197.953 10.0565 202.265 12.4645C206.577 14.8725 209.909 18.3445 212.261 22.8805C214.669 27.3605 215.873 32.8205 215.873 39.2605C215.873 45.5325 214.641 51.0205 212.177 55.7245C209.769 60.4285 206.381 64.0965 202.013 66.7285C197.701 69.3605 192.745 70.6765 187.145 70.6765C181.433 70.6765 176.421 69.4725 172.109 67.0645C167.797 64.6565 164.437 61.1845 162.029 56.6485C159.677 52.1125 158.501 46.6525 158.501 40.2685C158.501 33.9965 159.733 28.5085 162.197 23.8045C164.661 19.1005 168.049 15.4325 172.361 12.8005C176.673 10.1685 181.629 8.85248 187.229 8.85248ZM186.893 10.3645C183.589 10.3645 180.705 11.6245 178.241 14.1445C175.833 16.6645 173.957 20.1365 172.613 24.5605C171.269 28.9845 170.597 34.1085 170.597 39.9325C170.597 45.8685 171.353 51.0485 172.865 55.4725C174.377 59.8405 176.421 63.2285 178.997 65.6365C181.573 67.9885 184.401 69.1645 187.481 69.1645C190.785 69.1645 193.641 67.9045 196.049 65.3845C198.513 62.8645 200.417 59.3925 201.761 54.9685C203.105 50.4885 203.777 45.3645 203.777 39.5965C203.777 33.6045 203.021 28.4245 201.509 24.0565C199.997 19.6885 197.953 16.3285 195.377 13.9765C192.857 11.5685 190.029 10.3645 186.893 10.3645ZM266.069 10.0285C265.845 12.4365 265.677 14.7605 265.565 17.0005C265.509 19.2405 265.481 20.9485 265.481 22.1245C265.481 23.4125 265.509 24.6165 265.565 25.7365C265.621 26.8565 265.677 27.8365 265.733 28.6765H263.801C263.185 24.4765 262.345 21.1725 261.281 18.7645C260.217 16.3005 258.789 14.5645 256.997 13.5565C255.205 12.4925 252.825 11.9605 249.857 11.9605H246.245C244.565 11.9605 243.277 12.1005 242.381 12.3805C241.485 12.6605 240.869 13.2485 240.533 14.1445C240.253 15.0405 240.113 16.4125 240.113 18.2605V60.2605C240.113 62.3885 240.337 63.9845 240.785 65.0485C241.233 66.1125 242.101 66.8125 243.389 67.1485C244.677 67.4845 246.525 67.6805 248.933 67.7365V69.5005C247.309 69.3885 245.209 69.3325 242.633 69.3325C240.057 69.2765 237.397 69.2485 234.653 69.2485C232.301 69.2485 230.033 69.2765 227.849 69.3325C225.665 69.3325 223.761 69.3885 222.137 69.5005V67.8205C223.985 67.7085 225.357 67.4845 226.253 67.1485C227.205 66.8125 227.821 66.1405 228.101 65.1325C228.437 64.1245 228.605 62.6125 228.605 60.5965V18.9325C228.605 16.8605 228.437 15.3485 228.101 14.3965C227.821 13.3885 227.205 12.7165 226.253 12.3805C225.357 11.9885 223.985 11.7645 222.137 11.7085V10.0285C224.377 10.0845 226.729 10.1405 229.193 10.1965C231.713 10.1965 234.177 10.2245 236.585 10.2805C239.049 10.2805 241.317 10.2805 243.389 10.2805C245.517 10.2805 247.225 10.2805 248.513 10.2805C251.089 10.2805 254.001 10.2805 257.249 10.2805C260.553 10.2245 263.493 10.1405 266.069 10.0285ZM253.385 39.2605C253.385 39.2605 253.385 39.5405 253.385 40.1005C253.385 40.6605 253.385 40.9405 253.385 40.9405H237.593C237.593 40.9405 237.593 40.6605 237.593 40.1005C237.593 39.5405 237.593 39.2605 237.593 39.2605H253.385ZM255.317 28.1725C255.093 31.3645 254.981 33.8005 254.981 35.4805C255.037 37.1605 255.065 38.7005 255.065 40.1005C255.065 41.5005 255.093 43.0405 255.149 44.7205C255.205 46.4005 255.345 48.8365 255.569 52.0285H253.637C253.413 50.1245 252.993 48.3325 252.377 46.6525C251.761 44.9165 250.809 43.5445 249.521 42.5365C248.289 41.4725 246.497 40.9405 244.145 40.9405V39.2605C245.881 39.2605 247.309 38.8965 248.429 38.1685C249.549 37.4405 250.417 36.5165 251.033 35.3965C251.705 34.2205 252.209 33.0165 252.545 31.7845C252.937 30.4965 253.217 29.2925 253.385 28.1725H255.317ZM315.206 10.0285C314.982 12.4365 314.814 14.7605 314.702 17.0005C314.646 19.2405 314.618 20.9485 314.618 22.1245C314.618 23.4125 314.646 24.6165 314.702 25.7365C314.758 26.8565 314.814 27.8365 314.87 28.6765H312.938C312.322 24.4765 311.482 21.1725 310.418 18.7645C309.354 16.3005 307.926 14.5645 306.134 13.5565C304.342 12.4925 301.962 11.9605 298.994 11.9605H295.382C293.702 11.9605 292.414 12.1005 291.518 12.3805C290.622 12.6605 290.006 13.2485 289.67 14.1445C289.39 15.0405 289.25 16.4125 289.25 18.2605V60.2605C289.25 62.3885 289.474 63.9845 289.922 65.0485C290.37 66.1125 291.238 66.8125 292.526 67.1485C293.814 67.4845 295.662 67.6805 298.07 67.7365V69.5005C296.446 69.3885 294.346 69.3325 291.77 69.3325C289.194 69.2765 286.534 69.2485 283.79 69.2485C281.438 69.2485 279.17 69.2765 276.986 69.3325C274.802 69.3325 272.898 69.3885 271.274 69.5005V67.8205C273.122 67.7085 274.494 67.4845 275.39 67.1485C276.342 66.8125 276.958 66.1405 277.238 65.1325C277.574 64.1245 277.742 62.6125 277.742 60.5965V18.9325C277.742 16.8605 277.574 15.3485 277.238 14.3965C276.958 13.3885 276.342 12.7165 275.39 12.3805C274.494 11.9885 273.122 11.7645 271.274 11.7085V10.0285C273.514 10.0845 275.866 10.1405 278.33 10.1965C280.85 10.1965 283.314 10.2245 285.722 10.2805C288.186 10.2805 290.454 10.2805 292.526 10.2805C294.654 10.2805 296.362 10.2805 297.65 10.2805C300.226 10.2805 303.138 10.2805 306.386 10.2805C309.69 10.2245 312.63 10.1405 315.206 10.0285ZM302.522 39.2605C302.522 39.2605 302.522 39.5405 302.522 40.1005C302.522 40.6605 302.522 40.9405 302.522 40.9405H286.73C286.73 40.9405 286.73 40.6605 286.73 40.1005C286.73 39.5405 286.73 39.2605 286.73 39.2605H302.522ZM304.454 28.1725C304.23 31.3645 304.118 33.8005 304.118 35.4805C304.174 37.1605 304.202 38.7005 304.202 40.1005C304.202 41.5005 304.23 43.0405 304.286 44.7205C304.342 46.4005 304.482 48.8365 304.706 52.0285H302.774C302.55 50.1245 302.13 48.3325 301.514 46.6525C300.898 44.9165 299.946 43.5445 298.658 42.5365C297.426 41.4725 295.634 40.9405 293.282 40.9405V39.2605C295.018 39.2605 296.446 38.8965 297.566 38.1685C298.686 37.4405 299.554 36.5165 300.17 35.3965C300.842 34.2205 301.346 33.0165 301.682 31.7845C302.074 30.4965 302.354 29.2925 302.522 28.1725H304.454Z" fill="#1C1C1C"/>
</svg>
